<mxfile modified="2022-09-27T02:06:08.923Z" host="app.diagrams.net" agent="5.0 (Windows NT 10.0; Win64; x64) AppleWebKit/537.36 (KHTML, like Gecko) Chrome/105.0.0.0 Safari/537.36" etag="T4pjnP0bWaCkosCafkRY" version="20.3.6" type="github">
  <diagram id="f106602c-feb2-e66a-4537-3a34d633f6aa" name="Page-1">
    <mxGraphModel dx="1221" dy="604" grid="1" gridSize="10" guides="1" tooltips="1" connect="1" arrows="1" fold="1" page="1" pageScale="1" pageWidth="1169" pageHeight="827" background="none" math="0" shadow="0">
      <root>
        <mxCell id="0" />
        <mxCell id="1" parent="0" />
        <mxCell id="14" value="&lt;b&gt;Google &lt;/b&gt;Cloud Platform" style="fillColor=#F6F6F6;strokeColor=none;shadow=0;gradientColor=none;fontSize=14;align=left;spacing=10;fontColor=#717171;9E9E9E;verticalAlign=top;spacingTop=-4;fontStyle=0;spacingLeft=40;html=1;" parent="1" vertex="1">
          <mxGeometry x="360" y="110" width="630" height="580" as="geometry" />
        </mxCell>
        <mxCell id="15" value="" style="shape=mxgraph.gcp2.google_cloud_platform;fillColor=#F6F6F6;strokeColor=none;shadow=0;gradientColor=none;" parent="14" vertex="1">
          <mxGeometry width="23" height="20" relative="1" as="geometry">
            <mxPoint x="20" y="10" as="offset" />
          </mxGeometry>
        </mxCell>
        <mxCell id="23" value="" style="strokeColor=#dddddd;fillColor=#ffffff;shadow=1;strokeWidth=1;rounded=1;absoluteArcSize=1;arcSize=2;fontSize=14;fontColor=#808080;align=left;html=1;" parent="14" vertex="1">
          <mxGeometry x="289.99606557377047" y="260" width="140" height="60" as="geometry" />
        </mxCell>
        <mxCell id="24" value="App&#xa;Engine" style="dashed=0;connectable=0;html=1;fillColor=#5184F3;strokeColor=none;shape=mxgraph.gcp2.hexIcon;prIcon=app_engine;part=1;labelPosition=right;verticalLabelPosition=middle;align=left;verticalAlign=middle;spacingLeft=5;fontColor=#999999;fontSize=12;" parent="23" vertex="1">
          <mxGeometry y="0.5" width="44" height="39" relative="1" as="geometry">
            <mxPoint x="5" y="-19.5" as="offset" />
          </mxGeometry>
        </mxCell>
        <mxCell id="oyelF2zbAN2xH5HKP9n_-32" value="" style="strokeColor=#dddddd;shadow=1;strokeWidth=1;rounded=1;absoluteArcSize=1;arcSize=2;" vertex="1" parent="14">
          <mxGeometry x="506.0655737704918" y="260" width="103.27868852459017" height="60" as="geometry" />
        </mxCell>
        <mxCell id="oyelF2zbAN2xH5HKP9n_-33" value="Cloud&#xa;SQL" style="editableCssRules=.*;fontColor=#999999;shape=image;verticalLabelPosition=middle;labelBackgroundColor=#ffffff;verticalAlign=middle;labelPosition=right;align=left;spacingLeft=20;part=1;points=[];imageAspect=0;image=data:image/svg+xml,PHN2ZyB4bWxucz0iaHR0cDovL3d3dy53My5vcmcvMjAwMC9zdmciIHhtbG5zOnY9Imh0dHBzOi8vdmVjdGEuaW8vbmFubyIgd2lkdGg9IjE0LjY1OTk5OTg0NzQxMjExIiBoZWlnaHQ9IjIwIiB2aWV3Qm94PSIwIDAgMTQuNjU5OTk5ODQ3NDEyMTEgMjAiPiYjeGE7CTxzdHlsZSB0eXBlPSJ0ZXh0L2NzcyI+JiN4YTsJLnN0MHtmaWxsOiM0Mjg1ZjQ7fSYjeGE7CS5zdDF7ZmlsbDojNjY5ZGY2O30mI3hhOwkuc3Qye2ZpbGw6I2FlY2JmYTt9JiN4YTsJPC9zdHlsZT4mI3hhOwk8c3R5bGU+JiN4YTsJCS5Ee2ZpbGwtcnVsZTpldmVub2RkfSYjeGE7CTwvc3R5bGU+JiN4YTsJPHBhdGggZD0iTTcuMzMgMTUuMzV2LTMuMDFMMCA4LjQ0djMuMDF6bTAgNC42NXYtMy4wMUwwIDEzLjA5djMuMDF6IiBjbGFzcz0ic3QyIEQiLz4mI3hhOwk8cGF0aCBkPSJNMTQuNjYgOC40NGwtNy4zMyAzLjl2My4wMWw3LjMzLTMuOXptMCA0LjY1bC03LjMzIDMuOVYyMGw3LjMzLTMuOXoiIGNsYXNzPSJzdDEgRCIvPiYjeGE7CTxwYXRoIGQ9Ik03LjMzIDB2My4wMWw3LjMzIDMuOVYzLjl6IiBjbGFzcz0ic3QwIEQiLz4mI3hhOwk8cGF0aCBkPSJNMCA2LjkxbDcuMzMtMy45VjBMMCAzLjl6IiBjbGFzcz0iRCBzdDEiLz4mI3hhOwk8cGF0aCBkPSJNNy4zMyAxMC43OVY3Ljc3TDAgMy44N3YzLjAyeiIgY2xhc3M9IkQgc3QyIi8+JiN4YTsJPHBhdGggZD0iTTE0LjY2IDMuODdsLTcuMzMgMy45djMuMDJsNy4zMy0zLjl6IiBjbGFzcz0iRCBzdDEiLz4mI3hhOzwvc3ZnPg==;" vertex="1" parent="oyelF2zbAN2xH5HKP9n_-32">
          <mxGeometry width="22" height="30" relative="1" as="geometry">
            <mxPoint x="19" y="15" as="offset" />
          </mxGeometry>
        </mxCell>
        <mxCell id="oyelF2zbAN2xH5HKP9n_-35" value="" style="edgeStyle=orthogonalEdgeStyle;fontSize=12;html=1;endArrow=blockThin;endFill=1;rounded=0;strokeWidth=2;endSize=4;startSize=4;dashed=0;strokeColor=#4284F3;startArrow=blockThin;startFill=1;exitX=1;exitY=0.5;exitDx=0;exitDy=0;entryX=0;entryY=0.5;entryDx=0;entryDy=0;" edge="1" parent="14" source="23" target="oyelF2zbAN2xH5HKP9n_-32">
          <mxGeometry width="100" relative="1" as="geometry">
            <mxPoint x="454.42622950819674" y="370" as="sourcePoint" />
            <mxPoint x="547.3770491803278" y="370" as="targetPoint" />
            <Array as="points" />
          </mxGeometry>
        </mxCell>
        <mxCell id="5" value="" style="edgeStyle=elbowEdgeStyle;fontSize=12;html=1;endArrow=oval;endFill=1;rounded=0;strokeWidth=2;endSize=6;startSize=4;dashed=0;strokeColor=#4284F3;elbow=vertical;" parent="1" edge="1">
          <mxGeometry width="100" relative="1" as="geometry">
            <mxPoint x="270" y="239.95348837209303" as="sourcePoint" />
            <mxPoint x="280" y="240" as="targetPoint" />
          </mxGeometry>
        </mxCell>
        <mxCell id="11" value="" style="edgeStyle=elbowEdgeStyle;fontSize=12;html=1;endArrow=oval;endFill=1;rounded=0;strokeWidth=2;endSize=6;startSize=4;dashed=0;strokeColor=#4284F3;elbow=vertical;" parent="1" edge="1">
          <mxGeometry width="100" relative="1" as="geometry">
            <mxPoint x="270" y="549.989247311828" as="sourcePoint" />
            <mxPoint x="280" y="550" as="targetPoint" />
            <Array as="points" />
          </mxGeometry>
        </mxCell>
        <mxCell id="12" value="" style="strokeColor=#dddddd;fillColor=#ffffff;shadow=1;strokeWidth=1;rounded=1;absoluteArcSize=1;arcSize=2;fontSize=14;fontColor=#808080;align=left;html=1;" parent="1" vertex="1">
          <mxGeometry x="400" y="370" width="170" height="60" as="geometry" />
        </mxCell>
        <mxCell id="13" value="&lt;font color=&quot;#000000&quot;&gt;Backend API&lt;/font&gt;&lt;br&gt;Cloud Endpoints" style="dashed=0;connectable=0;html=1;fillColor=#5184F3;strokeColor=none;shape=mxgraph.gcp2.hexIcon;prIcon=cloud_endpoints;part=1;labelPosition=right;verticalLabelPosition=middle;align=left;verticalAlign=middle;spacingLeft=5;fontColor=#999999;fontSize=12;" parent="12" vertex="1">
          <mxGeometry y="0.5" width="44" height="39" relative="1" as="geometry">
            <mxPoint x="5" y="-19.5" as="offset" />
          </mxGeometry>
        </mxCell>
        <mxCell id="18" value="" style="edgeStyle=orthogonalEdgeStyle;fontSize=12;html=1;endArrow=blockThin;endFill=1;rounded=0;strokeWidth=2;endSize=4;startSize=4;dashed=0;strokeColor=#4284F3;startArrow=blockThin;startFill=1;" parent="1" edge="1">
          <mxGeometry width="100" relative="1" as="geometry">
            <mxPoint x="330" y="400" as="sourcePoint" />
            <mxPoint x="377" y="400" as="targetPoint" />
            <Array as="points">
              <mxPoint x="330" y="400" />
              <mxPoint x="330" y="400" />
            </Array>
          </mxGeometry>
        </mxCell>
        <mxCell id="19" value="" style="fontSize=12;html=1;endArrow=blockThin;endFill=1;rounded=0;strokeWidth=2;endSize=4;startSize=4;dashed=0;strokeColor=#4284F3;startArrow=blockThin;startFill=1;edgeStyle=orthogonalEdgeStyle;" parent="1" edge="1">
          <mxGeometry width="100" relative="1" as="geometry">
            <mxPoint x="290" y="240" as="sourcePoint" />
            <mxPoint x="290" y="550" as="targetPoint" />
            <Array as="points">
              <mxPoint x="330" y="240" />
              <mxPoint x="330" y="550" />
            </Array>
          </mxGeometry>
        </mxCell>
        <mxCell id="20" value="" style="edgeStyle=orthogonalEdgeStyle;fontSize=12;html=1;endArrow=oval;endFill=1;rounded=0;strokeWidth=2;endSize=6;startSize=4;dashed=0;strokeColor=#4284F3;exitX=0;exitY=0.149;exitPerimeter=0;" parent="1" edge="1">
          <mxGeometry width="100" relative="1" as="geometry">
            <mxPoint x="400.09302325581393" y="382.8604651162791" as="sourcePoint" />
            <mxPoint x="390" y="383" as="targetPoint" />
          </mxGeometry>
        </mxCell>
        <mxCell id="21" value="" style="edgeStyle=orthogonalEdgeStyle;fontSize=12;html=1;endArrow=oval;endFill=1;rounded=0;strokeWidth=2;endSize=6;startSize=4;dashed=0;strokeColor=#4284F3;" parent="1" edge="1">
          <mxGeometry width="100" relative="1" as="geometry">
            <mxPoint x="400" y="400" as="sourcePoint" />
            <mxPoint x="389.9902912621359" y="399.9126213592233" as="targetPoint" />
          </mxGeometry>
        </mxCell>
        <mxCell id="22" value="" style="edgeStyle=orthogonalEdgeStyle;fontSize=12;html=1;endArrow=oval;endFill=1;rounded=0;strokeWidth=2;endSize=6;startSize=4;dashed=0;strokeColor=#4284F3;" parent="1" edge="1">
          <mxGeometry width="100" relative="1" as="geometry">
            <mxPoint x="400" y="416.04651162790697" as="sourcePoint" />
            <mxPoint x="389.9902912621359" y="415.91262135922335" as="targetPoint" />
          </mxGeometry>
        </mxCell>
        <mxCell id="25" value="" style="edgeStyle=orthogonalEdgeStyle;fontSize=12;html=1;endArrow=blockThin;endFill=1;rounded=0;strokeWidth=2;endSize=4;startSize=4;dashed=0;strokeColor=#4284F3;startArrow=blockThin;startFill=1;" parent="1" source="12" target="23" edge="1">
          <mxGeometry width="100" relative="1" as="geometry">
            <mxPoint x="300" y="410" as="sourcePoint" />
            <mxPoint x="387" y="410" as="targetPoint" />
            <Array as="points" />
          </mxGeometry>
        </mxCell>
        <mxCell id="3" value="Smartphone" style="strokeColor=#dddddd;fillColor=#ffffff;shadow=1;strokeWidth=1;rounded=1;absoluteArcSize=1;arcSize=2;labelPosition=center;verticalLabelPosition=middle;align=center;verticalAlign=bottom;spacingLeft=0;fontColor=#999999;fontSize=12;whiteSpace=wrap;spacingBottom=2;html=1;" parent="1" vertex="1">
          <mxGeometry x="200" y="198" width="70" height="85" as="geometry" />
        </mxCell>
        <mxCell id="4" value="" style="dashed=0;html=1;fillColor=#757575;strokeColor=none;shape=mxgraph.gcp2.phone;part=1;" parent="3" vertex="1">
          <mxGeometry x="0.5" width="32" height="50" relative="1" as="geometry">
            <mxPoint x="-16" y="10" as="offset" />
          </mxGeometry>
        </mxCell>
        <mxCell id="9" value="Dispensador" style="strokeColor=#dddddd;fillColor=#ffffff;shadow=1;strokeWidth=1;rounded=1;absoluteArcSize=1;arcSize=2;labelPosition=center;verticalLabelPosition=middle;align=center;verticalAlign=bottom;spacingLeft=0;fontColor=#999999;fontSize=12;whiteSpace=wrap;spacingBottom=2;html=1;" parent="1" vertex="1">
          <mxGeometry x="200" y="507.14285714285717" width="70" height="85" as="geometry" />
        </mxCell>
        <mxCell id="10" value="" style="dashed=0;html=1;fillColor=#757575;strokeColor=none;shape=mxgraph.gcp2.phone;part=1;" parent="9" vertex="1">
          <mxGeometry x="0.5" width="32" height="30" relative="1" as="geometry">
            <mxPoint x="-16" y="10" as="offset" />
          </mxGeometry>
        </mxCell>
      </root>
    </mxGraphModel>
  </diagram>
</mxfile>
